<svg width="268" height="268" viewBox="0 0 268 268" fill="none" xmlns="http://www.w3.org/2000/svg">
<mask id="path-1-inside-1_169_862" fill="white">
<path d="M197.008 133.508C197.008 198.401 168.578 251.008 133.508 251.008C98.4377 251.008 70.0078 198.401 70.0078 133.508C70.0078 68.6144 98.4377 16.0078 133.508 16.0078C168.578 16.0078 197.008 68.6144 197.008 133.508Z"/>
</mask>
<path d="M198.008 133.508C197.341 133.508 196.674 133.508 196.008 133.508C195.541 143.163 194.468 152.756 192.753 162.176C186.18 197.728 167.947 243.251 133.508 244.758C91.0417 237.83 78.3359 177.133 78.0078 133.508C78.3359 89.8829 91.0417 29.1857 133.508 22.2578C167.947 23.7641 186.18 69.2876 192.753 104.84C194.468 114.26 195.541 123.853 196.008 133.508C196.674 133.508 197.341 133.508 198.008 133.508C198.474 123.765 198.282 113.961 197.37 104.207C192.72 67.8138 182.389 16.9563 133.508 9.75781C102.938 10.2114 85.6753 37.232 75.9417 59.5618C66.0481 83.1177 62.0604 108.444 62.0078 133.508C62.0604 158.571 66.0481 183.898 75.9417 207.454C85.6754 229.784 102.938 256.804 133.508 257.258C182.389 250.059 192.72 199.202 197.37 162.809C198.282 153.054 198.474 143.25 198.008 133.508ZM196.008 133.508H198.008H196.008Z" fill="#640E99" mask="url(#path-1-inside-1_169_862)"/>
<mask id="path-3-inside-2_169_862" fill="white">
<path d="M188.501 101.758C220.948 157.957 222.63 217.731 192.258 235.266C161.887 252.801 110.962 221.457 78.5156 165.258C46.0689 109.059 44.3867 49.285 74.7582 31.75C105.13 14.215 156.054 45.5586 188.501 101.758Z"/>
</mask>
<path d="M189.367 101.258C188.79 101.591 188.212 101.925 187.635 102.258C192.058 110.853 195.925 119.698 199.15 128.713C211.234 162.788 218.205 211.329 189.133 229.853C148.893 245.087 107.54 198.874 85.4438 161.258C63.9155 123.314 44.5705 64.3954 77.8832 37.1627C108.462 21.2475 147.013 51.5556 170.482 79.058C176.677 86.3586 182.403 94.1301 187.635 102.258C188.212 101.925 188.79 101.591 189.367 101.258C184.899 92.5876 179.831 84.193 174.163 76.2014C151.94 47.0094 117.565 8.13093 71.6332 26.3373C45.3856 42.0152 43.9462 74.0469 46.6815 98.2519C49.8914 123.599 59.1012 147.526 71.5874 169.258C84.1647 190.937 100.281 210.877 120.628 226.33C140.222 240.802 168.682 255.571 195.383 240.679C234.116 210.004 217.634 160.795 203.465 126.953C199.378 118.048 194.642 109.462 189.367 101.258ZM187.635 102.258L189.367 101.258L187.635 102.258Z" fill="#640E99" mask="url(#path-3-inside-2_169_862)"/>
<mask id="path-5-inside-3_169_862" fill="white">
<path d="M165.258 78.5148C221.457 110.962 252.801 161.886 235.266 192.257C217.731 222.629 157.957 220.947 101.758 188.5C45.5586 156.053 14.215 105.129 31.75 74.7574C49.285 44.3858 109.059 46.0681 165.258 78.5148Z"/>
</mask>
<path d="M165.758 77.6488C165.425 78.2261 165.091 78.8035 164.758 79.3808C172.886 84.6129 180.657 90.3388 187.958 96.5339C215.46 120.002 245.768 158.554 229.853 189.132C202.621 222.445 143.702 203.1 105.758 181.572C68.1417 159.475 21.9293 118.123 37.1627 77.8824C55.6868 48.8102 104.228 55.7819 138.303 67.8656C147.318 71.0905 156.163 74.9579 164.758 79.3808C165.091 78.8035 165.425 78.2261 165.758 77.6488C157.554 72.3738 148.968 67.6378 140.063 63.5508C106.221 49.3815 57.0119 32.8995 26.3373 71.6324C11.4451 98.3337 26.2144 126.794 40.6858 146.388C56.1391 166.734 76.0787 182.851 97.758 195.428C119.49 207.914 143.417 217.124 168.764 220.334C192.969 223.069 225.001 221.63 240.679 195.382C258.885 149.451 220.007 115.075 190.815 92.8521C182.823 87.1842 174.428 82.1164 165.758 77.6488ZM164.758 79.3808L165.758 77.6488L164.758 79.3808Z" fill="#640E99" mask="url(#path-5-inside-3_169_862)"/>
<mask id="path-7-inside-4_169_862" fill="white">
<path d="M133.508 70.0078C198.401 70.0078 251.008 98.4377 251.008 133.508C251.008 168.578 198.401 197.008 133.508 197.008C68.6144 197.008 16.0078 168.578 16.0078 133.508C16.0078 98.4377 68.6144 70.0078 133.508 70.0078Z"/>
</mask>
<path d="M133.508 69.0078C133.508 69.6745 133.508 70.3412 133.508 71.0078C143.163 71.475 152.756 72.548 162.176 74.2629C197.728 80.8357 243.252 99.0685 244.758 133.508C237.83 175.974 177.133 188.68 133.508 189.008C89.8829 188.68 29.1857 175.974 22.2578 133.508C23.7641 99.0685 69.2876 80.8357 104.84 74.2629C114.26 72.548 123.853 71.475 133.508 71.0078C133.508 70.3412 133.508 69.6745 133.508 69.0078C123.765 68.5418 113.961 68.7333 104.207 69.6461C67.8138 74.296 16.9563 84.6268 9.75781 133.508C10.2114 164.078 37.232 181.34 59.5618 191.074C83.1177 200.967 108.444 204.955 133.508 205.008C158.571 204.955 183.898 200.967 207.454 191.074C229.784 181.34 256.804 164.078 257.258 133.508C250.059 84.6268 199.202 74.296 162.809 69.6461C153.054 68.7333 143.25 68.5418 133.508 69.0078ZM133.508 71.0078L133.508 69.0078L133.508 71.0078Z" fill="#640E99" mask="url(#path-7-inside-4_169_862)"/>
<mask id="path-9-inside-5_169_862" fill="white">
<path d="M101.758 78.5148C157.957 46.0681 217.731 44.3858 235.266 74.7574C252.801 105.129 221.457 156.053 165.258 188.5C109.059 220.947 49.285 222.629 31.75 192.257C14.215 161.886 45.5586 110.962 101.758 78.5148Z"/>
</mask>
<path d="M101.258 77.6488C101.591 78.2261 101.925 78.8035 102.258 79.3808C110.853 74.9579 119.698 71.0905 128.713 67.8656C162.788 55.7819 211.329 48.8102 229.853 77.8824C245.087 118.123 198.874 159.475 161.258 181.572C123.314 203.1 64.3954 222.445 37.1627 189.132C21.2475 158.554 51.5556 120.002 79.058 96.5339C86.3586 90.3388 94.1301 84.6129 102.258 79.3808C101.925 78.8035 101.591 78.2261 101.258 77.6488C92.5877 82.1164 84.193 87.1842 76.2014 92.8521C47.0094 115.075 8.13093 149.451 26.3373 195.382C42.0152 221.63 74.0469 223.069 98.2519 220.334C123.599 217.124 147.526 207.914 169.258 195.428C190.937 182.851 210.877 166.734 226.33 146.388C240.802 126.794 255.571 98.3337 240.679 71.6324C210.004 32.8995 160.795 49.3815 126.953 63.5508C118.048 67.6378 109.462 72.3738 101.258 77.6488ZM102.258 79.3808L101.258 77.6488L102.258 79.3808Z" fill="#640E99" mask="url(#path-9-inside-5_169_862)"/>
<mask id="path-11-inside-6_169_862" fill="white">
<path d="M78.5167 101.758C110.963 45.5583 161.888 14.2146 192.259 31.7497C222.631 49.2847 220.949 109.058 188.502 165.258C156.055 221.457 105.131 252.801 74.7593 235.266C44.3878 217.731 46.07 157.957 78.5167 101.758Z"/>
</mask>
<path d="M77.6507 101.258C78.2281 101.591 78.8054 101.924 79.3828 102.258C84.6148 94.1297 90.3407 86.3583 96.5359 79.0577C120.004 51.5552 158.556 21.2472 189.134 37.1623C222.447 64.3951 203.102 123.313 181.574 161.258C159.477 198.874 118.125 245.086 77.8843 229.853C48.8122 211.329 55.7839 162.788 67.8676 128.713C71.0925 119.697 74.9598 110.853 79.3828 102.258C78.8054 101.924 78.2281 101.591 77.6507 101.258C72.3758 109.462 67.6398 118.048 63.5528 126.952C49.3834 160.794 32.9014 210.004 71.6343 240.678C98.3356 255.57 126.796 240.801 146.39 226.33C166.736 210.877 182.853 190.937 195.43 169.258C207.916 147.526 217.126 123.598 220.336 98.2515C223.071 74.0465 221.632 42.0149 195.384 26.337C149.453 8.13058 115.077 47.0091 92.8541 76.2011C87.1862 84.1927 82.1184 92.5873 77.6507 101.258ZM79.3828 102.258L77.6507 101.258L79.3828 102.258Z" fill="#640E99" mask="url(#path-11-inside-6_169_862)"/>
<mask id="path-13-inside-7_169_862" fill="white">
<path d="M70.0098 133.508C70.0098 68.6144 98.4397 16.0078 133.51 16.0078C168.58 16.0078 197.01 68.6144 197.01 133.508C197.01 198.401 168.58 251.008 133.51 251.008C98.4397 251.008 70.0098 198.401 70.0098 133.508Z"/>
</mask>
<path d="M69.0098 133.508C69.6764 133.508 70.3431 133.508 71.0098 133.508C71.4769 123.853 72.55 114.26 74.2648 104.84C80.8377 69.2876 99.0704 23.7641 133.51 22.2578C175.976 29.1857 188.682 89.8829 189.01 133.508C188.682 177.133 175.976 237.83 133.51 244.758C99.0705 243.252 80.8377 197.728 74.2648 162.176C72.55 152.756 71.4769 143.163 71.0098 133.508C70.3431 133.508 69.6764 133.508 69.0098 133.508C68.5437 143.25 68.7352 153.054 69.648 162.809C74.298 199.202 84.6288 250.059 133.51 257.258C164.08 256.804 181.342 229.784 191.076 207.454C200.969 183.898 204.957 158.571 205.01 133.508C204.957 108.444 200.969 83.1177 191.076 59.5618C181.342 37.2319 164.08 10.2114 133.51 9.75781C84.6288 16.9563 74.298 67.8138 69.648 104.207C68.7352 113.961 68.5437 123.765 69.0098 133.508ZM71.0098 133.508H69.0098H71.0098Z" fill="#640E99" mask="url(#path-13-inside-7_169_862)"/>
<mask id="path-15-inside-8_169_862" fill="white">
<path d="M78.5167 165.258C46.07 109.058 44.3878 49.2847 74.7593 31.7497C105.131 14.2146 156.055 45.5583 188.502 101.758C220.949 157.957 222.631 217.731 192.259 235.266C161.888 252.801 110.963 221.457 78.5167 165.258Z"/>
</mask>
<path d="M77.6507 165.758C78.228 165.424 78.8054 165.091 79.3828 164.758C74.9598 156.163 71.0925 147.318 67.8675 138.303C55.7838 104.227 48.8122 55.6865 77.8843 37.1623C118.125 21.929 159.477 68.1414 181.574 105.758C203.102 143.702 222.447 202.62 189.134 229.853C158.556 245.768 120.004 215.46 96.5358 187.958C90.3407 180.657 84.6148 172.886 79.3828 164.758C78.8054 165.091 78.228 165.424 77.6507 165.758C82.1183 174.428 87.1862 182.823 92.8541 190.814C115.077 220.006 149.453 258.885 195.384 240.678C221.632 225 223.071 192.969 220.336 168.764C217.126 143.417 207.916 119.49 195.43 97.7576C182.853 76.0784 166.736 56.1387 146.39 40.6855C126.796 26.2141 98.3356 11.4448 71.6343 26.337C32.9014 57.0116 49.3834 106.221 63.5528 140.063C67.6397 148.967 72.3758 157.553 77.6507 165.758ZM79.3828 164.758L77.6507 165.758L79.3828 164.758Z" fill="#640E99" mask="url(#path-15-inside-8_169_862)"/>
<mask id="path-17-inside-9_169_862" fill="white">
<path d="M101.76 188.501C45.5602 156.054 14.2166 105.13 31.7516 74.7583C49.2866 44.3867 109.06 46.0689 165.26 78.5156C221.459 110.962 252.803 161.887 235.268 192.258C217.733 222.63 157.959 220.948 101.76 188.501Z"/>
</mask>
<path d="M101.26 189.367C101.593 188.79 101.926 188.212 102.26 187.635C94.1317 182.403 86.3602 176.677 79.0596 170.482C51.5572 147.013 21.2491 108.462 37.1643 77.8833C64.397 44.5705 123.315 63.9155 161.26 85.4438C198.876 107.54 245.088 148.893 229.855 189.133C211.331 218.205 162.79 211.234 128.715 199.15C119.699 195.925 110.855 192.058 102.26 187.635C101.926 188.212 101.593 188.79 101.26 189.367C109.464 194.642 118.05 199.378 126.954 203.465C160.796 217.634 210.006 234.116 240.68 195.383C255.572 168.682 240.803 140.222 226.332 120.628C210.879 100.281 190.939 84.1647 169.26 71.5874C147.528 59.1013 123.6 49.8914 98.2535 46.6815C74.0485 43.9462 42.0168 45.3856 26.3389 71.6333C8.13253 117.565 47.011 151.94 76.203 174.164C84.1946 179.831 92.5892 184.899 101.26 189.367ZM102.26 187.635L101.26 189.367L102.26 187.635Z" fill="#640E99" mask="url(#path-17-inside-9_169_862)"/>
<mask id="path-19-inside-10_169_862" fill="white">
<path d="M133.51 197.009C68.6163 197.009 16.0098 168.579 16.0098 133.509C16.0098 98.4387 68.6163 70.0088 133.51 70.0088C198.403 70.0088 251.01 98.4387 251.01 133.509C251.01 168.579 198.403 197.009 133.51 197.009Z"/>
</mask>
<path d="M133.51 198.009C133.51 197.342 133.51 196.675 133.51 196.009C123.855 195.542 114.262 194.469 104.841 192.754C69.2895 186.181 23.7661 167.948 22.2598 133.509C29.1876 91.0427 89.8849 78.3369 133.51 78.0088C177.135 78.3369 237.832 91.0427 244.76 133.509C243.253 167.948 197.73 186.181 162.178 192.754C152.758 194.469 143.165 195.542 133.51 196.009C133.51 196.675 133.51 197.342 133.51 198.009C143.252 198.475 153.056 198.283 162.811 197.371C199.204 192.721 250.061 182.39 257.26 133.509C256.806 102.939 229.786 85.6763 207.456 75.9427C183.9 66.0491 158.573 62.0614 133.51 62.0088C108.446 62.0614 83.1197 66.0491 59.5637 75.9427C37.2339 85.6764 10.2134 102.939 9.75977 133.509C16.9583 182.39 67.8158 192.721 104.208 197.371C113.963 198.283 123.767 198.475 133.51 198.009ZM133.51 196.009L133.51 198.009L133.51 196.009Z" fill="#640E99" mask="url(#path-19-inside-10_169_862)"/>
<mask id="path-21-inside-11_169_862" fill="white">
<path d="M165.26 188.501C109.06 220.948 49.2867 222.63 31.7516 192.258C14.2166 161.887 45.5602 110.962 101.76 78.5156C157.959 46.0689 217.733 44.3867 235.268 74.7582C252.803 105.13 221.459 156.054 165.26 188.501Z"/>
</mask>
<path d="M165.76 189.367C165.426 188.79 165.093 188.212 164.76 187.635C156.165 192.058 147.32 195.925 138.305 199.15C104.229 211.234 55.6885 218.205 37.1643 189.133C21.931 148.893 68.1434 107.54 105.76 85.4438C143.704 63.9155 202.622 44.5705 229.855 77.8832C245.77 108.462 215.462 147.013 187.96 170.482C180.659 176.677 172.888 182.403 164.76 187.635C165.093 188.212 165.426 188.79 165.76 189.367C174.43 184.899 182.825 179.831 190.816 174.164C220.008 151.94 258.887 117.565 240.68 71.6332C225.002 45.3856 192.971 43.9462 168.766 46.6815C143.419 49.8914 119.492 59.1013 97.7596 71.5874C76.0803 84.1648 56.1407 100.282 40.6874 120.628C26.216 140.222 11.4468 168.682 26.339 195.383C57.0136 234.116 106.223 217.634 140.065 203.465C148.969 199.378 157.555 194.642 165.76 189.367ZM164.76 187.635L165.76 189.367L164.76 187.635Z" fill="#640E99" mask="url(#path-21-inside-11_169_862)"/>
</svg>
