<svg width="24" height="24" viewBox="0 0 24 24" fill="none" xmlns="http://www.w3.org/2000/svg">
<mask id="path-1-inside-1_204_1315" fill="white">
<path d="M17.707 11.9996C17.707 17.8324 15.1516 22.5608 11.9995 22.5608C8.84732 22.5608 6.29199 17.8324 6.29199 11.9996C6.29199 6.16687 8.84732 1.43848 11.9995 1.43848C15.1516 1.43848 17.707 6.16687 17.707 11.9996Z"/>
</mask>
<path d="M17.7992 11.9996C17.7377 11.9996 17.6762 11.9996 17.6148 11.9996C17.5717 12.8673 17.4743 13.7294 17.3192 14.5757C16.7262 17.7702 15.0783 21.8558 11.9995 21.9846C8.20422 21.3656 7.05734 15.9174 7.02949 11.9996C7.05734 8.08185 8.20423 2.63365 11.9995 2.01464C15.0783 2.14348 16.7262 6.22909 17.3192 9.42359C17.4743 10.2699 17.5717 11.1319 17.6148 11.9996C17.6762 11.9996 17.7377 11.9996 17.7992 11.9996C17.8421 11.1238 17.8259 10.2424 17.7448 9.36524C17.3291 6.09323 16.4096 1.51589 11.9995 0.862309C9.24018 0.90278 7.68592 3.33766 6.80922 5.34658C5.91823 7.46637 5.55925 9.74485 5.5545 11.9996C5.55925 14.2544 5.91823 16.5329 6.80922 18.6527C7.68592 20.6616 9.24018 23.0965 11.9995 23.1369C16.4096 22.4834 17.3291 17.906 17.7448 14.634C17.8259 13.7568 17.8421 12.8754 17.7992 11.9996ZM17.6148 11.9996H17.7992H17.6148Z" fill="white" mask="url(#path-1-inside-1_204_1315)"/>
<mask id="path-3-inside-2_204_1315" fill="white">
<path d="M16.9426 9.14672C19.8589 14.198 20.0101 19.5706 17.2803 21.1467C14.5504 22.7228 9.97328 19.9056 7.05692 14.8542C4.14055 9.80291 3.98935 4.43034 6.7192 2.85425C9.44905 1.27816 14.0262 4.0954 16.9426 9.14672Z"/>
</mask>
<path d="M17.0224 9.10062C16.9692 9.13135 16.916 9.16208 16.8627 9.19281C17.2593 9.9658 17.6059 10.7611 17.8948 11.5715C18.9785 14.6346 19.5941 18.9967 16.9922 20.6477C13.3959 22.0093 9.67861 17.8645 7.69561 14.4855C5.76085 11.0787 4.02999 5.78693 7.00728 3.35323C9.73804 1.92538 13.2079 4.63966 15.3187 7.10969C15.8762 7.76509 16.3916 8.46288 16.8627 9.19281C16.916 9.16208 16.9692 9.13135 17.0224 9.10062C16.6217 8.32069 16.167 7.56545 15.6582 6.84635C13.6621 4.22056 10.5772 0.716201 6.43111 2.35527C4.06173 3.76997 3.93313 6.65578 4.17834 8.83391C4.46661 11.1152 5.29496 13.2679 6.41823 15.223C7.54973 17.1733 8.99985 18.967 10.8314 20.3573C12.5951 21.6588 15.1585 22.9903 17.5684 21.6457C21.0609 18.8746 19.5685 14.4508 18.2925 11.4093C17.9242 10.609 17.4975 9.83759 17.0224 9.10062ZM16.8627 9.19281L17.0224 9.10062L16.8627 9.19281Z" fill="white" mask="url(#path-3-inside-2_204_1315)"/>
<mask id="path-5-inside-3_204_1315" fill="white">
<path d="M14.8537 7.05698C19.905 9.97336 22.7222 14.5505 21.1461 17.2804C19.57 20.0103 14.1975 19.8591 9.14618 16.9427C4.09489 14.0263 1.27766 9.44912 2.85374 6.71926C4.42982 3.98939 9.80237 4.1406 14.8537 7.05698Z"/>
</mask>
<path d="M14.8998 6.97714C14.869 7.03037 14.8383 7.08359 14.8076 7.13681C15.5375 7.60797 16.2353 8.12338 16.8907 8.68082C19.3607 10.7916 22.075 14.2616 20.6471 16.9923C18.2134 19.9696 12.9217 18.2388 9.51493 16.304C6.13597 14.321 1.99116 10.6036 3.35272 7.00734C5.0037 4.40541 9.36586 5.02107 12.4289 6.10478C13.2393 6.39365 14.0346 6.74025 14.8076 7.13681C14.8383 7.08359 14.869 7.03037 14.8998 6.97714C14.1628 6.50204 13.3914 6.07535 12.5911 5.70701C9.54964 4.43104 5.12585 2.93864 2.35477 6.43117C1.01017 8.84102 2.34169 11.4045 3.64311 13.1682C5.03339 14.9997 6.82712 16.4499 8.77743 17.5814C10.7325 18.7047 12.8852 19.533 15.1665 19.8213C17.3446 20.0665 20.2304 19.9379 21.6451 17.5685C23.2841 13.4224 19.7798 10.3375 17.154 8.34141C16.4349 7.83257 15.6797 7.37782 14.8998 6.97714ZM14.8076 7.13681L14.8998 6.97714L14.8076 7.13681Z" fill="white" mask="url(#path-5-inside-3_204_1315)"/>
<mask id="path-7-inside-4_204_1315" fill="white">
<path d="M11.9996 6.29297C17.8323 6.29297 22.5607 8.84832 22.5607 12.0005C22.5607 15.1527 17.8323 17.708 11.9996 17.708C6.16684 17.708 1.43848 15.1527 1.43848 12.0005C1.43848 8.84832 6.16684 6.29297 11.9996 6.29297Z"/>
</mask>
<path d="M11.9996 6.20079C11.9996 6.26225 11.9996 6.3237 11.9996 6.38516C12.8673 6.42823 13.7293 6.52569 14.5756 6.68075C17.7701 7.27375 21.8557 8.92166 21.9845 12.0005C21.3655 15.7958 15.9174 16.9427 11.9996 16.9705C8.0818 16.9427 2.63363 15.7958 2.01464 12.0005C2.14347 8.92166 6.22904 7.27375 9.42355 6.68075C10.2699 6.52569 11.1319 6.42823 11.9996 6.38516C11.9996 6.3237 11.9996 6.26225 11.9996 6.20079C11.1238 6.15782 10.2424 6.17402 9.36519 6.25514C6.09318 6.67087 1.51587 7.59034 0.862309 12.0005C0.902772 14.7598 3.33763 16.3141 5.34654 17.1908C7.46632 18.0818 9.7448 18.4408 11.9996 18.4455C14.2544 18.4408 16.5328 18.0818 18.6526 17.1908C20.6615 16.3141 23.0964 14.7598 23.1368 12.0005C22.4833 7.59034 17.906 6.67087 14.634 6.25514C13.7568 6.17402 12.8754 6.15782 11.9996 6.20079ZM11.9996 6.38516L11.9996 6.20079L11.9996 6.38516Z" fill="white" mask="url(#path-7-inside-4_204_1315)"/>
<mask id="path-9-inside-5_204_1315" fill="white">
<path d="M9.14573 7.05735C14.197 4.14097 19.5696 3.98976 21.1457 6.71963C22.7217 9.44949 19.9045 14.0267 14.8532 16.9431C9.80192 19.8594 4.42937 20.0106 2.85329 17.2808C1.27721 14.5509 4.09443 9.97373 9.14573 7.05735Z"/>
</mask>
<path d="M9.09963 6.97751C9.13036 7.03074 9.16109 7.08396 9.19182 7.13718C9.96481 6.74062 10.7601 6.39402 11.5705 6.10515C14.6335 5.02144 18.9957 4.40578 20.6467 7.00771C22.0082 10.604 17.8634 14.3213 14.4845 16.3044C11.0777 18.2391 5.78594 19.97 3.35226 16.9927C1.92442 14.2619 4.63868 10.792 7.10871 8.68119C7.7641 8.12375 8.46189 7.60833 9.19182 7.13718C9.16109 7.08396 9.13036 7.03074 9.09963 6.97751C8.3197 7.37819 7.56446 7.83294 6.84537 8.34178C4.21959 10.3378 0.715248 13.4228 2.35431 17.5689C3.76899 19.9382 6.65478 20.0669 8.83291 19.8216C11.1142 19.5334 13.2669 18.705 15.222 17.5817C17.1723 16.4502 18.966 15.0001 20.3563 13.1686C21.6577 11.4049 22.9892 8.84139 21.6446 6.43154C18.8736 2.93901 14.4498 4.43141 11.4083 5.70738C10.608 6.07572 9.8366 6.50241 9.09963 6.97751ZM9.19182 7.13718L9.09963 6.97751L9.19182 7.13718Z" fill="white" mask="url(#path-9-inside-5_204_1315)"/>
<mask id="path-11-inside-6_204_1315" fill="white">
<path d="M7.057 9.14626C9.97337 4.09494 14.5505 1.2777 17.2804 2.85379C20.0102 4.42988 19.859 9.80245 16.9427 14.8538C14.0263 19.9051 9.44913 22.7223 6.71928 21.1462C3.98943 19.5702 4.14063 14.1976 7.057 9.14626Z"/>
</mask>
<path d="M6.97716 9.10016C7.03039 9.13089 7.08361 9.16162 7.13684 9.19235C7.60799 8.46242 8.1234 7.76463 8.68083 7.10923C10.7916 4.6392 14.2615 1.92492 16.9923 3.35277C19.9696 5.78647 18.2387 11.0782 16.304 14.485C14.321 17.864 10.6036 22.0088 7.00736 20.6473C4.40544 18.9963 5.02111 14.6341 6.10481 11.5711C6.39368 10.7606 6.74028 9.96534 7.13684 9.19235C7.08361 9.16162 7.03039 9.13089 6.97716 9.10016C6.50206 9.83713 6.07538 10.6086 5.70704 11.4088C4.43107 14.4503 2.93867 18.8741 6.4312 21.6452C8.84105 22.9898 11.4045 21.6583 13.1682 20.3569C14.9997 18.9666 16.4498 17.1728 17.5813 15.2225C18.7046 13.2674 19.533 11.1147 19.8212 8.83345C20.0664 6.65532 19.9378 3.76951 17.5685 2.35481C13.4224 0.715741 10.3375 4.2201 8.34142 6.84589C7.83259 7.56499 7.37784 8.32023 6.97716 9.10016ZM7.13684 9.19235L6.97716 9.10016L7.13684 9.19235Z" fill="white" mask="url(#path-11-inside-6_204_1315)"/>
<mask id="path-13-inside-7_204_1315" fill="white">
<path d="M6.29303 12.0004C6.29303 6.16761 8.84836 1.43922 12.0005 1.43922C15.1527 1.43922 17.708 6.16761 17.708 12.0004C17.708 17.8331 15.1527 22.5615 12.0005 22.5615C8.84836 22.5615 6.29303 17.8331 6.29303 12.0004Z"/>
</mask>
<path d="M6.20084 12.0004C6.2623 12.0004 6.32376 12.0004 6.38522 12.0004C6.42828 11.1327 6.52574 10.2706 6.6808 9.42433C7.2738 6.22982 8.92169 2.14422 12.0005 2.01538C15.7958 2.63439 16.9427 8.08259 16.9705 12.0004C16.9427 15.9182 15.7958 21.3664 12.0005 21.9854C8.92169 21.8565 7.2738 17.7709 6.6808 14.5764C6.52574 13.7301 6.42828 12.8681 6.38522 12.0004C6.32376 12.0004 6.2623 12.0004 6.20084 12.0004C6.15788 12.8762 6.17408 13.7576 6.25519 14.6348C6.67092 17.9068 7.59035 22.4841 12.0005 23.1377C14.7598 23.0972 16.3141 20.6623 17.1908 18.6534C18.0818 16.5336 18.4408 14.2552 18.4455 12.0004C18.4408 9.74559 18.0818 7.46711 17.1908 5.34732C16.3141 3.3384 14.7598 0.903521 12.0005 0.863049C7.59035 1.51663 6.67092 6.09397 6.25519 9.36598C6.17408 10.2432 6.15788 11.1246 6.20084 12.0004ZM6.38522 12.0004H6.20084H6.38522Z" fill="white" mask="url(#path-13-inside-7_204_1315)"/>
<mask id="path-15-inside-8_204_1315" fill="white">
<path d="M7.05742 14.8533C4.14105 9.80196 3.98985 4.42938 6.7197 2.8533C9.44955 1.27721 14.0267 4.09444 16.9431 9.14576C19.8594 14.1971 20.0107 19.5697 17.2808 21.1458C14.551 22.7218 9.97379 19.9046 7.05742 14.8533Z"/>
</mask>
<path d="M6.97758 14.8994C7.03081 14.8686 7.08403 14.8379 7.13726 14.8072C6.7407 14.0342 6.3941 13.2389 6.10523 12.4285C5.02153 9.36545 4.40586 5.00326 7.00778 3.35227C10.6041 1.99071 14.3214 6.13554 16.3044 9.51451C18.2392 12.9213 19.97 18.2131 16.9927 20.6468C14.262 22.0746 10.7921 19.3603 8.68125 16.8903C8.12382 16.2349 7.60841 15.5371 7.13726 14.8072C7.08403 14.8379 7.03081 14.8686 6.97758 14.8994C7.37827 15.6793 7.83301 16.4346 8.34184 17.1537C10.3379 19.7794 13.4228 23.2838 17.5689 21.6447C19.9383 20.23 20.0669 17.3442 19.8217 15.1661C19.5334 12.8848 18.705 10.7321 17.5818 8.77702C16.4503 6.82669 15.0001 5.03296 13.1686 3.64267C11.4049 2.34125 8.84147 1.00971 6.43162 2.35432C2.9391 5.12543 4.4315 9.54923 5.70746 12.5908C6.0758 13.391 6.50248 14.1624 6.97758 14.8994ZM7.13726 14.8072L6.97758 14.8994L7.13726 14.8072Z" fill="white" mask="url(#path-15-inside-8_204_1315)"/>
<mask id="path-17-inside-9_204_1315" fill="white">
<path d="M9.14633 16.943C4.09503 14.0266 1.27781 9.44946 2.85389 6.71959C4.42997 3.98973 9.80252 4.14093 14.8538 7.05731C19.9051 9.9737 22.7223 14.5509 21.1463 17.2807C19.5702 20.0106 14.1976 19.8594 9.14633 16.943Z"/>
</mask>
<path d="M9.10024 17.0229C9.13096 16.9696 9.16169 16.9164 9.19242 16.8632C8.4625 16.392 7.7647 15.8766 7.10931 15.3192C4.63929 13.2084 1.92502 9.73843 3.35286 7.00768C5.78655 4.03038 11.0783 5.76123 14.4851 7.696C17.864 9.67902 22.0088 13.3964 20.6473 16.9927C18.9963 19.5946 14.6341 18.9789 11.5711 17.8952C10.7607 17.6064 9.96541 17.2597 9.19242 16.8632C9.16169 16.9164 9.13096 16.9696 9.10024 17.0229C9.8372 17.498 10.6086 17.9246 11.4089 18.293C14.4504 19.569 18.8742 21.0614 21.6452 17.5688C22.9898 15.159 21.6583 12.5955 20.3569 10.8318C18.9666 9.00027 17.1729 7.55013 15.2226 6.41862C13.2675 5.29535 11.1148 4.46699 8.83351 4.17872C6.65539 3.93351 3.7696 4.06212 2.35491 6.43151C0.715849 10.5776 4.22019 13.6625 6.84597 15.6586C7.56506 16.1674 8.3203 16.6222 9.10024 17.0229ZM9.19242 16.8632L9.10024 17.0229L9.19242 16.8632Z" fill="white" mask="url(#path-17-inside-9_204_1315)"/>
<mask id="path-19-inside-10_204_1315" fill="white">
<path d="M12.0004 17.708C6.16769 17.708 1.43932 15.1527 1.43932 12.0005C1.43932 8.84831 6.16769 6.29297 12.0004 6.29297C17.8332 6.29297 22.5615 8.84831 22.5615 12.0005C22.5615 15.1527 17.8332 17.708 12.0004 17.708Z"/>
</mask>
<path d="M12.0004 17.8002C12.0004 17.7387 12.0004 17.6773 12.0004 17.6158C11.1327 17.5728 10.2707 17.4753 9.42439 17.3202C6.22989 16.7272 2.14431 15.0793 2.01549 12.0005C2.63447 8.20523 8.08265 7.05832 12.0004 7.03046C15.9182 7.05832 21.3664 8.20522 21.9854 12.0005C21.8565 15.0793 17.771 16.7272 14.5765 17.3202C13.7301 17.4753 12.8681 17.5728 12.0004 17.6158C12.0004 17.6773 12.0004 17.7387 12.0004 17.8002C12.8762 17.8432 13.7576 17.827 14.6348 17.7458C17.9068 17.3301 22.4841 16.4106 23.1377 12.0005C23.0972 9.2412 20.6624 7.68691 18.6535 6.81021C16.5337 5.91921 14.2552 5.56023 12.0004 5.55548C9.74564 5.56023 7.46717 5.91921 5.34739 6.81021C3.33847 7.68692 0.903616 9.2412 0.863154 12.0005C1.51672 16.4106 6.09403 17.3301 9.36604 17.7458C10.2432 17.827 11.1246 17.8432 12.0004 17.8002ZM12.0004 17.6158L12.0004 17.8002L12.0004 17.6158Z" fill="white" mask="url(#path-19-inside-10_204_1315)"/>
<mask id="path-21-inside-11_204_1315" fill="white">
<path d="M14.8543 16.9427C9.80298 19.859 4.43043 20.0102 2.85435 17.2804C1.27827 14.5505 4.09549 9.97333 9.14679 7.05695C14.1981 4.14056 19.5706 3.98936 21.1467 6.71922C22.7228 9.44908 19.9056 14.0263 14.8543 16.9427Z"/>
</mask>
<path d="M14.9004 17.0225C14.8696 16.9693 14.8389 16.916 14.8082 16.8628C14.0352 17.2594 13.2399 17.606 12.4295 17.8949C9.36647 18.9786 5.0043 19.5942 3.35333 16.9923C1.99176 13.396 6.13657 9.67865 9.51553 7.69564C12.9223 5.76086 18.2141 4.03001 20.6477 7.00731C22.0756 9.73807 19.3613 13.208 16.8913 15.3188C16.2359 15.8763 15.5381 16.3917 14.8082 16.8628C14.8389 16.916 14.8696 16.9693 14.9004 17.0225C15.6803 16.6218 16.4355 16.1671 17.1546 15.6582C19.7804 13.6622 23.2848 10.5772 21.6457 6.43114C20.231 4.06175 17.3452 3.93314 15.1671 4.17835C12.8858 4.46662 10.7331 5.29498 8.77804 6.41826C6.82772 7.54976 5.034 8.9999 3.64371 10.8314C2.34229 12.5951 1.01078 15.1586 2.35537 17.5685C5.12645 21.061 9.55025 19.5686 12.5918 18.2926C13.392 17.9243 14.1634 17.4976 14.9004 17.0225ZM14.8082 16.8628L14.9004 17.0225L14.8082 16.8628Z" fill="white" mask="url(#path-21-inside-11_204_1315)"/>
</svg>
